<!--?xml version="1.0" standalone="no"?-->
              <svg id="sw-js-blob-svg" viewBox="0 0 100 100" xmlns="http://www.w3.org/2000/svg" version="1.1">
                    <defs> 
                        <linearGradient id="sw-gradient" x1="0" x2="1" y1="1" y2="0">
                            <stop id="stop1" stop-color="rgba(92, 124, 250, 1)" offset="0%"></stop>
                            <stop id="stop2" stop-color="rgba(85, 204, 119, 1)" offset="100%"></stop>
                        </linearGradient>
                    </defs>
                <path fill="url(#sw-gradient)" d="M25.4,-33.8C32.7,-29.7,38.1,-21.9,39.7,-13.7C41.3,-5.4,39.1,3.3,36.7,12.3C34.3,21.4,31.8,30.9,25.7,37.1C19.5,43.4,9.8,46.4,1,45C-7.8,43.7,-15.7,38,-23.3,32.3C-30.9,26.5,-38.3,20.7,-41.7,12.9C-45.2,5.1,-44.7,-4.6,-40.9,-12.4C-37.1,-20.1,-30,-25.9,-22.7,-29.9C-15.3,-34,-7.7,-36.4,0.7,-37.4C9.1,-38.4,18.2,-37.9,25.4,-33.8Z" width="100%" height="100%" transform="translate(50 50)" stroke-width="0" style="transition: 0.3s;"></path>
              </svg>